HIERARCHY
ROOT Hips
{
 OFFSET 0.000000 0.000000 0.000000
 CHANNELS 6 Xposition Yposition Zposition Yrotation Xrotation Zrotation
 JOINT Chest
 {
  OFFSET 0.000000 9.857222 0.000240
  CHANNELS 3 Yrotation Xrotation Zrotation
  JOINT Chest2
  {
   OFFSET 0.000000 10.876940 -0.000436
   CHANNELS 3 Yrotation Xrotation Zrotation
   JOINT Chest3
   {
    OFFSET 0.000000 9.827798 0.000000
    CHANNELS 3 Yrotation Xrotation Zrotation
    JOINT Chest4
    {
     OFFSET 0.000000 9.827798 0.000000
     CHANNELS 3 Yrotation Xrotation Zrotation
     JOINT Neck
     {
      OFFSET 0.000000 13.831992 0.000000
      CHANNELS 3 Yrotation Xrotation Zrotation
      JOINT Head
      {
       OFFSET 0.000000 9.147643 -0.001036
       CHANNELS 3 Yrotation Xrotation Zrotation
       End Site
       {
        OFFSET 0.000000 17.515799 -0.000541
       }
      }
     }
     JOINT RightCollar
     {
      OFFSET -3.001579 7.717577 0.000000
      CHANNELS 3 Yrotation Xrotation Zrotation
      JOINT RightShoulder
      {
       OFFSET -14.002642 0.000000 0.000000
       CHANNELS 3 Yrotation Xrotation Zrotation
       JOINT RightElbow
       {
        OFFSET -30.053852 0.000000 0.000000
        CHANNELS 3 Yrotation Xrotation Zrotation
        JOINT RightWrist
        {
         OFFSET -24.564923 0.000000 -0.000000
         CHANNELS 3 Yrotation Xrotation Zrotation
         End Site
         {
          OFFSET -18.334355 0.000000 0.000000
         }
        }
       }
      }
     }
     JOINT LeftCollar
     {
      OFFSET 3.001579 7.717577 0.000000
      CHANNELS 3 Yrotation Xrotation Zrotation
      JOINT LeftShoulder
      {
       OFFSET 14.002642 0.000000 0.000000
       CHANNELS 3 Yrotation Xrotation Zrotation
       JOINT LeftElbow
       {
        OFFSET 30.053852 0.000000 0.000000
        CHANNELS 3 Yrotation Xrotation Zrotation
        JOINT LeftWrist
        {
         OFFSET 24.564923 0.000000 -0.000000
         CHANNELS 3 Yrotation Xrotation Zrotation
         End Site
         {
          OFFSET 18.334355 0.000000 0.000000
         }
        }
       }
      }
     }
    }
   }
  }
 }
 JOINT RightHip
 {
  OFFSET -8.003235 -0.001175 -0.000120
  CHANNELS 3 Yrotation Xrotation Zrotation
  JOINT RightKnee
  {
   OFFSET 0.000000 -41.759727 0.000113
   CHANNELS 3 Yrotation Xrotation Zrotation
   JOINT RightAnkle
   {
    OFFSET 0.000000 -40.728748 0.000159
    CHANNELS 3 Yrotation Xrotation Zrotation
    JOINT RightToe
    {
     OFFSET 0.000000 -6.515296 14.732841
     CHANNELS 3 Yrotation Xrotation Zrotation
     End Site
     {
      OFFSET 0.000000 -1.502839 6.412115
     }
    }
   }
  }
 }
 JOINT LeftHip
 {
  OFFSET 8.003235 -0.001175 -0.000120
  CHANNELS 3 Yrotation Xrotation Zrotation
  JOINT LeftKnee
  {
   OFFSET 0.000000 -41.759727 0.000113
   CHANNELS 3 Yrotation Xrotation Zrotation
   JOINT LeftAnkle
   {
    OFFSET 0.000000 -40.728748 0.000159
    CHANNELS 3 Yrotation Xrotation Zrotation
    JOINT LeftToe
    {
     OFFSET 0.000000 -6.515296 14.732841
     CHANNELS 3 Yrotation Xrotation Zrotation
     End Site
     {
      OFFSET 0.000000 -1.502839 6.412115
     }
    }
   }
  }
 }
}
MOTION
Frames: 8
Frame Time: 0.016667
-14.066844 46.664881 85.576792 168.356310 82.178354 -173.764831 -0.969189 -4.678555 5.059826 -0.366270 -2.095390 2.186516 -0.366270 -2.095390 2.186516 -0.267176 -1.572878 1.638448 1.640963 22.166166 -1.352428 3.340187 5.037489 -2.898775 10.699433 1.848525 9.715287 51.709243 23.904520 27.847746 37.954897 42.282582 -37.954556 -19.766356 10.655561 -59.237264 -16.179617 1.934892 -7.453144 -8.364536 20.912661 -6.063120 -78.892166 11.860854 24.316070 10.632613 7.411506 66.439459 -15.516466 -20.767239 1.633194 -14.811224 4.945852 -14.473424 -27.486998 -21.702267 8.599109 -0.393217 -0.790451 0.001868 -32.227914 -18.068988 8.712568 -1.917413 7.787436 -14.057940 -39.924699 -39.727889 0.232492 -0.170362 -0.353417 0.162342
-14.126192 46.562821 86.079271 168.890425 81.817867 -173.209394 -0.941424 -4.772708 4.883417 -0.370560 -2.104650 2.132913 -0.370560 -2.104650 2.132913 -0.270544 -1.579804 1.598229 1.746732 22.299294 -1.267773 3.504050 5.285285 -2.770913 11.122954 2.435829 10.219521 50.196254 23.106403 28.074463 38.166816 44.097221 -38.989641 -20.070518 10.651754 -59.140973 -16.004192 1.594179 -7.258651 -6.867092 20.166813 -6.209971 -80.935213 13.059032 23.538915 10.989062 7.523951 66.317031 -15.478965 -20.907775 1.571009 -14.990665 4.910520 -14.415674 -27.134853 -21.629284 8.495799 -0.350243 -0.787620 0.017779 -32.267743 -18.165781 8.773399 -2.175704 7.743569 -14.127179 -39.695533 -39.659880 0.307265 -0.169882 -0.401396 0.160954
-14.068232 46.435476 86.517746 170.250353 81.615696 -171.780353 -0.740679 -4.364161 4.943723 -0.277961 -1.901208 2.172328 -0.277961 -1.901208 2.172328 -0.201695 -1.426916 1.628232 1.633948 22.053196 -1.532644 3.380907 4.834740 -3.225993 10.703723 2.176172 10.036251 49.654355 23.445062 28.264500 37.947181 44.934449 -40.687934 -20.191913 10.544224 -59.011519 -16.581975 0.818849 -7.436557 -4.759519 18.728332 -6.320060 -83.180307 14.292936 22.711684 11.329736 7.686050 66.274929 -15.241917 -20.908136 1.436901 -15.018615 4.938865 -14.447970 -26.980443 -21.614120 8.430132 -0.337417 -0.743315 0.024383 -31.999914 -18.140570 8.688518 -2.320877 7.692742 -14.226579 -39.753469 -39.557400 0.408743 -0.148622 -0.425522 0.158796
-13.938095 46.383653 87.063476 171.935667 81.239871 -169.989687 -0.707376 -3.859510 5.137368 -0.245145 -1.687679 2.254042 -0.245145 -1.687679 2.254042 -0.177622 -1.266684 1.689732 1.606197 21.708656 -1.831619 3.426026 4.206782 -3.770286 10.420329 0.829437 9.524465 49.654519 24.801507 28.307939 38.386357 44.836323 -41.744185 -20.236585 10.477286 -58.847444 -16.824846 -0.151451 -7.822400 -3.185946 19.508996 -6.462152 -84.379580 15.088410 24.112172 11.679737 7.806517 66.360418 -14.816599 -21.076057 1.323484 -14.860474 5.047224 -14.582945 -27.143517 -21.526619 8.486991 -0.371641 -0.733340 0.002519 -31.646526 -18.306232 8.567134 -2.027987 7.768170 -14.105827 -40.186313 -39.494121 0.437632 -0.141665 -0.438023 0.146168
-13.694165 46.385831 87.540965 173.120743 80.661070 -168.746099 -0.816086 -3.768243 5.130283 -0.288768 -1.670015 2.243712 -0.288768 -1.670015 2.243712 -0.210431 -1.253592 1.681876 1.753565 21.626137 -1.765246 3.676906 4.057333 -3.694739 10.855494 0.464724 9.558232 48.597100 24.210146 27.648226 40.067798 45.577623 -41.088588 -20.112135 10.803008 -58.743123 -16.214539 -0.172690 -7.896379 -2.951494 20.966597 -7.410750 -84.660580 16.381299 26.132293 11.998625 7.892687 66.426321 -14.464739 -21.434446 1.263293 -14.726933 5.168308 -14.642721 -27.423485 -20.982219 8.898949 -0.549441 -0.870535 -0.132663 -31.474401 -18.613673 8.599274 -1.801782 7.781779 -13.975339 -40.350248 -39.476701 0.429911 -0.175648 -0.388087 0.120632
-13.692753 46.336459 87.771886 173.276233 80.130727 -168.555455 -1.007301 -3.925509 5.001684 -0.402053 -1.740883 2.218254 -0.402053 -1.740883 2.218254 -0.295201 -1.307142 1.662418 1.965351 21.720282 -1.590505 4.007440 4.233624 -3.434938 11.914643 0.933170 9.861831 46.461925 22.138634 27.120473 41.668661 47.722312 -40.107189 -20.208204 10.972894 -58.563972 -15.139321 0.027905 -7.818368 -2.501554 21.031733 -7.805960 -85.752820 17.386719 26.230412 12.261553 7.981263 66.408106 -14.502890 -21.716558 1.234397 -14.792737 5.102168 -14.528036 -27.219940 -20.751964 9.023170 -0.571673 -0.819281 -0.171490 -31.608961 -18.849646 8.716466 -1.896398 7.608769 -14.028518 -40.002152 -39.370267 0.445265 -0.252218 -0.325556 0.084042
-13.733439 45.867721 88.116864 172.383467 79.707346 -169.480040 -1.007508 -3.907409 4.977881 -0.436118 -1.712992 2.234616 -0.436118 -1.712992 2.234616 -0.320804 -1.286359 1.674616 1.971811 21.622861 -1.593747 4.023467 4.053263 -3.446271 12.166514 0.896695 9.842050 45.060483 21.052521 27.621136 42.069237 49.559466 -40.757842 -20.260119 11.013719 -58.362331 -14.861549 -0.444807 -7.772435 -1.354952 20.111673 -7.912605 -87.477186 18.257424 25.198284 12.488905 8.085298 66.314296 -14.871477 -21.859800 1.320460 -14.902659 4.911575 -14.365476 -26.882883 -20.599938 8.991481 -0.493222 -0.741622 -0.138567 -31.861574 -18.950056 8.875075 -2.094456 7.438142 -14.075288 -39.712430 -39.283616 0.477403 -0.280255 -0.313207 0.069345
-13.844787 45.786063 88.344319 172.200663 79.376238 -169.636428 -0.848668 -3.480425 5.105179 -0.364736 -1.530608 2.304395 -0.364736 -1.530608 2.304395 -0.267768 -1.149351 1.727280 1.833354 21.188413 -1.813681 3.851445 3.250940 -3.821461 11.857627 -0.039263 9.381801 44.841159 21.989398 28.447162 41.211001 49.881121 -43.186061 -20.268965 11.097901 -58.179902 -15.212675 -1.464380 -8.012202 0.162046 19.460212 -7.798110 -89.045537 18.944108 24.754635 12.662985 8.133883 66.382635 -14.958315 -21.905840 1.358054 -14.818991 4.805747 -14.332554 -26.881308 -20.527143 9.002239 -0.466583 -0.629683 -0.111332 -31.900013 -18.999292 8.935949 -2.010029 7.365160 -14.086232 -39.826167 -39.242357 0.505262 -0.271129 -0.296015 0.065459
